# xmcd
#
# Track frame offsets:
#	150
#	16297
#	43230
#	54052
#	73658
#	81745
#	97544
#	114972
#	129273
#	148455
#	158565
#
# Disc length: 2416 seconds
#
# Revision: 5
# Processed by: cddbd v1.4PL0 Copyright (c) Steve Scherf et al.
# Submitted via: EasyCDDAExtractor 6.0.0.1
#
DISCID=8a096e0b
DTITLE=Otis Taylor - White African
DYEAR=2001
DGENRE=Blues
TTITLE0=My Soul's In Louisiana
TTITLE1=Resurrection Blues
TTITLE2=Momma Don't You Do It
TTITLE3=3 Days And 3 Nights
TTITLE4=Round And Round
TTITLE5=Stick On You
TTITLE6=Rain So Hard
TTITLE7=Lost My Horse
TTITLE8=Saint Martha Blues
TTITLE9=Ain't No Cowgirl
TTITLE10=Hungry People
EXTD=
EXTT0=
EXTT1=
EXTT2=
EXTT3=
EXTT4=
EXTT5=
EXTT6=
EXTT7=
EXTT8=
EXTT9=
EXTT10=
PLAYORDER=
